<svg width="24" height="24" viewBox="0 0 24 24" fill="none" xmlns="http://www.w3.org/2000/svg">
<path fill-rule="evenodd" clip-rule="evenodd" d="M18 6H6C4.89543 6 4 6.89543 4 8V16C4 17.1046 4.89543 18 6 18H18C19.1046 18 20 17.1046 20 16V8C20 6.89543 19.1046 6 18 6ZM6 4C3.79086 4 2 5.79086 2 8V16C2 18.2091 3.79086 20 6 20H18C20.2091 20 22 18.2091 22 16V8C22 5.79086 20.2091 4 18 4H6Z" fill="#888888"/>
<path d="M10 14.7102V9.2893C10 9.06505 10.248 8.9253 10.4405 9.0423L14.8584 11.6845C15.0444 11.795 15.0477 12.0615 14.865 12.1752L10.447 14.954C10.2545 15.0775 10 14.9377 10 14.7102Z" fill="#888888"/>
</svg>
